<?xml version="1.0" standalone="no"?>
<!DOCTYPE svg PUBLIC "-//W3C//DTD SVG 20010904//EN"
 "http://www.w3.org/TR/2001/REC-SVG-20010904/DTD/svg10.dtd">
<svg version="1.0" xmlns="http://www.w3.org/2000/svg"
 width="256.000000pt" height="256.000000pt" viewBox="0 0 256.000000 256.000000"
 preserveAspectRatio="xMidYMid meet">
<metadata>
Created by potrace 1.11, written by Peter Selinger 2001-2013
</metadata>
<g transform="translate(0.000000,256.000000) scale(0.100000,-0.100000)"
fill="#000000" stroke="none">
<path d="M575 2209 c-27 -9 -87 -21 -225 -49 -159 -31 -226 -67 -257 -140 -8
-19 -23 -78 -34 -130 -17 -80 -20 -116 -14 -225 9 -193 28 -294 91 -482 19
-56 34 -104 34 -107 0 -4 -22 -6 -50 -6 -38 0 -52 -4 -60 -19 -18 -34 -12 -60
18 -75 15 -8 36 -23 46 -35 11 -12 23 -21 27 -21 18 0 135 -76 183 -119 66
-60 115 -99 197 -158 178 -129 234 -166 428 -280 138 -81 144 -83 178 -72 19
6 37 8 40 5 4 -3 1 -6 -6 -6 -7 0 -19 -6 -27 -14 -12 -13 -7 -16 41 -26 30 -6
63 -9 72 -6 10 3 25 1 33 -4 12 -8 11 -10 -7 -10 -35 0 -27 -18 14 -35 35 -15
60 -12 34 4 -9 6 -10 11 -2 15 6 4 11 2 11 -3 0 -6 7 -11 16 -11 13 0 14 -3 5
-13 -8 -10 -7 -17 1 -25 15 -15 32 -16 23 -2 -13 21 7 31 31 16 31 -21 34 -20
34 5 0 21 1 21 27 -5 31 -32 25 -41 -28 -40 -44 2 -47 -1 -19 -16 23 -12 23
-13 242 94 81 39 148 73 148 76 0 3 -26 20 -58 38 -31 18 -64 36 -72 41 -8 5
-60 32 -115 59 -55 27 -115 58 -133 68 -27 16 -34 17 -41 5 -10 -15 -61 -8
-61 9 0 6 -7 10 -15 10 -8 0 -24 9 -36 21 -26 26 -32 20 -16 -14 9 -21 18 -27
36 -25 13 2 26 -3 28 -9 3 -9 -7 -13 -29 -13 -19 0 -39 -5 -44 -10 -6 -6 -52
-12 -103 -14 -115 -5 -140 -21 -35 -23 71 -2 94 -6 83 -18 -3 -2 -39 -5 -82
-7 -57 -2 -76 -6 -72 -15 9 -26 -24 -12 -66 28 -24 22 -53 45 -64 51 -11 6 14
-21 55 -60 84 -81 81 -94 -6 -28 -57 42 -98 83 -157 156 -64 79 -83 103 -108
133 -34 41 -51 75 -42 80 5 3 24 8 43 12 19 3 63 15 97 26 35 11 71 19 80 17
15 -4 -73 -35 -185 -67 -22 -6 -21 -9 29 -66 29 -33 50 -52 46 -42 -18 46 -19
51 -2 29 16 -22 18 -22 35 -7 12 11 24 14 32 9 7 -5 18 -9 23 -9 33 -3 85 -19
85 -26 0 -13 48 -11 56 3 5 8 10 7 18 -4 6 -8 23 -18 39 -22 15 -3 27 -13 27
-21 0 -8 5 -15 10 -15 6 0 10 8 8 17 -2 9 7 22 19 28 17 9 20 14 11 23 -9 9
-7 15 8 27 26 20 29 19 67 -15 39 -34 59 -40 32 -10 -30 33 -6 46 41 22 48
-24 155 -65 209 -80 111 -31 506 -32 615 -3 171 47 228 72 297 127 23 19 54
55 69 81 27 47 28 52 34 253 3 113 5 206 4 208 -1 2 -10 -9 -19 -25 -32 -54
-131 -112 -280 -166 -113 -40 -118 -41 -305 -38 -223 3 -332 13 -448 41 -98
25 -135 46 -62 36 185 -24 412 -12 560 31 47 13 99 28 115 32 17 4 47 16 68
26 30 14 40 15 52 5 13 -11 18 -10 28 2 7 9 22 18 35 21 20 5 22 3 10 -11 -7
-9 -17 -20 -23 -24 -5 -4 -7 -10 -3 -13 3 -4 33 15 65 41 49 40 59 53 64 88 3
23 3 43 -1 46 -3 3 -10 14 -15 25 -8 19 -8 19 -13 1 -2 -10 2 -22 9 -27 18
-11 6 -21 -16 -13 -13 5 -16 14 -11 37 4 21 1 36 -10 48 -13 14 -13 21 -4 40
11 20 10 21 -14 15 l-26 -6 1 62 c0 35 4 101 8 148 4 47 6 89 3 93 -2 5 -17
-7 -33 -27 -27 -32 -159 -106 -189 -106 -6 0 -21 -5 -33 -12 -45 -25 -104 -44
-144 -47 -7 -1 -13 -5 -13 -11 0 -5 3 -9 8 -9 4 1 19 1 35 0 35 -1 35 -19 0
-23 -34 -4 -46 -38 -14 -38 22 0 28 -14 11 -25 -5 -3 -10 -16 -10 -28 -1 -21
-2 -21 -14 -4 -12 15 -15 15 -26 2 -18 -22 -40 -18 -40 7 0 17 -3 19 -12 10
-17 -17 -38 -15 -38 3 0 9 10 15 26 15 21 0 25 4 22 23 -2 17 -11 23 -36 25
-37 4 -34 22 4 22 13 0 24 3 24 8 0 7 -202 16 -365 17 -44 0 -83 4 -87 10 -5
6 -11 6 -18 -1 -9 -9 -25 -6 -63 8 -29 11 -66 23 -83 25 -28 4 -32 10 -38 45
-4 21 -4 44 0 49 3 5 0 17 -7 25 -6 8 -9 17 -5 21 9 9 31 -14 31 -34 0 -18 31
-41 41 -30 4 4 -1 13 -11 21 -14 10 -15 15 -5 21 7 4 16 2 20 -5 10 -16 30 -4
30 18 0 15 -2 15 -11 2 -8 -11 -12 -12 -16 -2 -2 6 -13 12 -24 12 -10 0 -19 5
-19 10 0 6 -7 10 -15 10 -7 0 -18 7 -23 15 -4 9 -22 17 -40 18 -24 1 -32 7
-32 21 0 11 -3 17 -6 14 -3 -4 -2 -28 2 -54 6 -45 8 -46 17 -24 9 24 10 23 19
-18 6 -27 14 -42 21 -39 8 3 13 -10 14 -36 0 -22 5 -49 11 -61 20 -45 42 -157
41 -213 -1 -44 -3 -52 -9 -33 -4 14 -9 41 -11 60 -2 31 -2 32 -6 8 -5 -29 -18
-37 -26 -15 -3 6 -6 2 -6 -11 -1 -13 3 -21 8 -18 5 4 4 -5 -2 -19 -12 -25 -12
-25 -15 -2 -2 12 -7 31 -12 42 -5 11 -11 29 -14 40 -3 11 -4 2 -3 -20 l2 -40
-47 0 c-67 -1 -73 -15 -7 -17 36 -1 43 -3 22 -5 -18 -2 -33 -9 -33 -14 0 -5
-11 -7 -25 -3 -22 5 -25 3 -25 -22 -1 -25 -2 -27 -11 -11 -6 10 -8 21 -5 24 6
7 -12 33 -23 33 -4 0 -7 -16 -8 -36 -2 -53 -17 -57 -37 -9 -2 6 -11 1 -20 -10
l-15 -20 -1 20 c-1 19 -2 19 -12 -2 -6 -13 -14 -23 -18 -23 -4 0 -12 10 -18
23 l-11 22 0 -22 c-1 -16 -6 -21 -16 -17 -9 4 -15 0 -15 -10 0 -32 -29 -16
-36 19 -3 19 -10 38 -15 41 -5 3 -9 18 -9 33 0 35 -38 183 -51 195 -5 6 -9 16
-9 24 0 8 -6 28 -14 45 -8 18 -21 52 -31 77 -23 63 -68 154 -77 158 -5 2 -8 8
-8 13 0 23 -127 169 -147 169 -7 0 -13 5 -13 10 0 23 61 -3 94 -39 24 -27 34
-27 38 1 3 19 10 23 53 25 28 2 71 11 98 20 36 13 50 14 59 5 17 -17 48 -15
48 2 0 21 20 30 33 17 16 -16 57 -14 57 4 0 21 14 19 36 -6 10 -11 27 -25 37
-31 16 -8 17 -7 8 10 -20 37 -108 107 -157 125 -52 18 -140 21 -189 6z m-95
-153 c0 -3 -4 -8 -10 -11 -5 -3 -10 -1 -10 4 0 6 5 11 10 11 6 0 10 -2 10 -4z
m-70 -66 c0 -5 -2 -10 -4 -10 -3 0 -8 5 -11 10 -3 6 -1 10 4 10 6 0 11 -4 11
-10z m50 -50 c0 -5 -4 -10 -10 -10 -5 0 -10 5 -10 10 0 6 5 10 10 10 6 0 10
-4 10 -10z m-40 -30 c0 -5 -4 -10 -10 -10 -5 0 -10 5 -10 10 0 6 5 10 10 10 6
0 10 -4 10 -10z m75 -20 c3 -5 1 -10 -4 -10 -6 0 -11 5 -11 10 0 6 2 10 4 10
3 0 8 -4 11 -10z m12 -62 c-3 -7 -5 -2 -5 12 0 14 2 19 5 13 2 -7 2 -19 0 -25z
m-207 -63 c0 -8 -5 -15 -10 -15 -6 0 -20 -9 -32 -20 -33 -30 -35 -14 -3 20 32
33 45 38 45 15z m830 -6 c0 -11 -4 -17 -10 -14 -5 3 -10 13 -10 21 0 8 5 14
10 14 6 0 10 -9 10 -21z m-790 -3 c0 -3 -4 -8 -10 -11 -5 -3 -10 -1 -10 4 0 6
5 11 10 11 6 0 10 -2 10 -4z m30 -26 c0 -5 -4 -10 -10 -10 -5 0 -10 5 -10 10
0 6 5 10 10 10 6 0 10 -4 10 -10z m23 -40 c-7 -28 -13 -25 -13 6 0 14 4 23 9
20 5 -3 7 -15 4 -26z m-27 -26 c-2 -34 -23 -30 -23 5 0 19 5 27 13 24 6 -2 11
-15 10 -29z m-149 -16 c-3 -8 -6 -5 -6 6 -1 11 2 17 5 13 3 -3 4 -12 1 -19z
m-40 -50 c-3 -7 -5 -2 -5 12 0 14 2 19 5 13 2 -7 2 -19 0 -25z m73 22 c0 -5
-4 -10 -10 -10 -5 0 -10 5 -10 10 0 6 5 10 10 10 6 0 10 -4 10 -10z m40 -6 c0
-8 -4 -12 -10 -9 -5 3 -10 10 -10 16 0 5 5 9 10 9 6 0 10 -7 10 -16z m-17 -28
c3 -8 0 -19 -6 -24 -9 -8 -12 -4 -13 14 -2 26 11 33 19 10z m97 -1 c0 -2 -7
-5 -15 -9 -9 -3 -15 0 -15 9 0 9 6 12 15 9 8 -4 15 -7 15 -9z m1613 -32 c-7
-2 -19 -2 -25 0 -7 3 -2 5 12 5 14 0 19 -2 13 -5z m-32 -70 c-9 -16 -10 -14
-11 12 0 21 3 26 11 18 8 -8 8 -16 0 -30z m-1684 -5 c-3 -8 -6 -5 -6 6 -1 11
2 17 5 13 3 -3 4 -12 1 -19z m13 -57 c0 -10 7 -24 15 -31 8 -7 15 -20 15 -29
1 -13 3 -12 12 4 16 29 16 29 34 14 13 -11 18 -11 21 -1 8 21 33 13 43 -13 8
-20 16 -25 45 -25 25 0 35 -4 35 -16 0 -8 5 -12 10 -9 6 3 10 20 10 36 0 18 4
28 10 24 6 -3 10 -19 10 -35 0 -16 5 -41 10 -56 12 -31 -4 -177 -20 -182 -6
-2 -10 -9 -10 -16 0 -20 -45 -57 -66 -53 -46 9 -74 20 -74 29 0 5 -9 7 -20 3
-15 -5 -18 -3 -14 8 3 8 -3 21 -13 29 -17 12 -31 33 -52 76 -4 9 -16 31 -25
49 -10 19 -14 42 -11 56 4 15 -1 41 -14 68 -23 47 -26 69 -11 69 6 0 10 -9 10
-19 0 -10 7 -21 15 -25 8 -3 12 -12 9 -21 -4 -10 0 -15 11 -15 13 0 16 5 11
23 -16 56 -18 77 -7 77 6 0 11 -8 11 -19z m50 -7 c0 -8 -4 -12 -10 -9 -5 3
-10 10 -10 16 0 5 5 9 10 9 6 0 10 -7 10 -16z m1480 -15 c0 -5 -7 -9 -15 -9
-9 0 -12 6 -9 15 6 15 24 11 24 -6z m143 -18 c15 -15 6 -20 -44 -25 -24 -3
-46 -5 -48 -5 -2 -1 2 -8 9 -16 18 -22 -4 -18 -24 4 -11 12 -15 27 -11 40 5
17 13 19 57 16 28 -2 56 -9 61 -14z m-122 -85 c14 -15 11 -26 -6 -26 -9 0 -15
9 -15 23 0 29 -15 53 -24 38 -8 -13 -36 -15 -36 -3 0 5 15 15 33 24 l32 15 3
-31 c2 -17 8 -35 13 -40z m99 20 c0 -16 -18 -31 -27 -22 -8 8 5 36 17 36 5 0
10 -6 10 -14z m5 -137 c18 -1 18 -2 2 -6 -22 -6 -50 16 -43 34 3 7 1 13 -4 13
-6 0 -10 -8 -10 -17 0 -15 -2 -14 -15 3 -15 18 -15 18 -13 -11 2 -24 9 -31 33
-36 23 -5 26 -7 13 -12 -41 -16 -48 -16 -48 -2 0 8 -8 18 -17 24 -15 8 -16 13
-5 30 10 18 10 21 -3 21 -9 0 -19 -10 -24 -22 l-8 -22 -12 22 c-10 19 -9 22 8
22 10 0 22 8 25 17 5 12 9 14 18 5 20 -20 31 -13 25 17 -3 16 -1 33 6 40 9 9
16 -4 32 -54 15 -50 24 -65 40 -66z m25 110 c0 -5 -4 -9 -10 -9 -5 0 -10 7
-10 16 0 8 5 12 10 9 6 -3 10 -10 10 -16z m386 -18 c-13 -20 -26 -11 -26 16 0
25 1 26 16 11 9 -9 13 -21 10 -27z m-562 -12 c-3 -5 -10 -7 -15 -3 -5 3 -7 10
-3 15 3 5 10 7 15 3 5 -3 7 -10 3 -15z m-964 2 c0 -6 -4 -13 -10 -16 -5 -3
-10 1 -10 9 0 9 5 16 10 16 6 0 10 -4 10 -9z m1120 -6 c0 -8 -7 -15 -15 -15
-16 0 -20 12 -8 23 11 12 23 8 23 -8z m-1160 -10 c0 -8 -7 -15 -15 -15 -13 0
-14 3 -3 15 16 18 18 18 18 0z m1450 -25 c-24 -15 -36 -11 -14 4 10 8 21 12
24 10 2 -3 -2 -9 -10 -14z m-270 0 c0 -5 -7 -10 -16 -10 -8 0 -12 5 -9 10 3 6
10 10 16 10 5 0 9 -4 9 -10z m-140 -80 c0 -5 -12 -10 -27 -9 -25 0 -26 1 -8 9
27 12 35 12 35 0z m-1437 -115 c-3 -9 -8 -14 -10 -11 -3 3 -2 9 2 15 9 16 15
13 8 -4z m108 -38 c-10 -9 -11 -8 -5 6 3 10 9 15 12 12 3 -3 0 -11 -7 -18z
m1569 3 c0 -5 -5 -10 -11 -10 -5 0 -7 5 -4 10 3 6 8 10 11 10 2 0 4 -4 4 -10z
m80 -35 c0 -8 -4 -15 -10 -15 -5 0 -10 7 -10 15 0 8 5 15 10 15 6 0 10 -7 10
-15z m-80 -35 c0 -5 -7 -10 -16 -10 -8 0 -12 5 -9 10 3 6 10 10 16 10 5 0 9
-4 9 -10z m40 -39 c0 -14 -5 -18 -20 -14 -11 3 -20 12 -20 19 0 8 9 14 20 14
13 0 20 -7 20 -19z m-50 -11 c0 -5 -7 -10 -15 -10 -8 0 -15 5 -15 10 0 6 7 10
15 10 8 0 15 -4 15 -10z m-1350 -20 c0 -5 -4 -10 -10 -10 -5 0 -10 5 -10 10 0
6 5 10 10 10 6 0 10 -4 10 -10z m400 0 c0 -5 -6 -10 -12 -10 -7 0 -31 -2 -53
-5 l-40 -5 30 14 c35 17 75 20 75 6z m897 4 c-3 -3 -12 -4 -19 -1 -8 3 -5 6 6
6 11 1 17 -2 13 -5z m150 0 c-3 -3 -12 -4 -19 -1 -8 3 -5 6 6 6 11 1 17 -2 13
-5z m-107 -24 c0 -5 -4 -10 -10 -10 -5 0 -10 5 -10 10 0 6 5 10 10 10 6 0 10
-4 10 -10z m-1360 -10 c0 -5 -4 -10 -10 -10 -5 0 -10 5 -10 10 0 6 5 10 10 10
6 0 10 -4 10 -10z m300 0 c-20 -13 -63 -13 -55 0 3 6 21 10 38 10 24 0 28 -3
17 -10z m1125 -11 c11 -17 0 -20 -21 -4 -17 13 -17 14 -2 15 9 0 20 -5 23 -11z
m-120 -9 c3 -5 1 -10 -4 -10 -6 0 -11 5 -11 10 0 6 2 10 4 10 3 0 8 -4 11 -10z
m75 3 c-1 -18 -30 -44 -41 -38 -8 6 -5 13 12 26 27 21 29 22 29 12z m-1423
-48 c-7 -14 -18 -25 -25 -25 -10 0 -9 4 2 16 9 8 16 20 16 25 0 5 4 9 9 9 5 0
4 -11 -2 -25z m1495 -16 c-15 -6 -30 -5 -40 1 -13 7 -8 9 23 9 35 0 37 -1 17
-10z m-931 -35 l24 -27 -27 18 c-16 9 -28 21 -28 26 0 14 5 11 31 -17z m-674
0 c-3 -3 -12 -4 -19 -1 -8 3 -5 6 6 6 11 1 17 -2 13 -5z m273 -35 c0 -5 -4 -9
-10 -9 -5 0 -10 7 -10 16 0 8 5 12 10 9 6 -3 10 -10 10 -16z m1260 -9 c0 -5
-4 -10 -10 -10 -5 0 -10 5 -10 10 0 6 5 10 10 10 6 0 10 -4 10 -10z m-950 -30
c0 -5 -14 -10 -31 -10 -17 0 -28 4 -24 10 3 6 17 10 31 10 13 0 24 -4 24 -10z
m1030 -10 c0 -5 -5 -10 -11 -10 -5 0 -7 5 -4 10 3 6 8 10 11 10 2 0 4 -4 4
-10z m-90 -16 c0 -2 -12 -4 -26 -4 -14 0 -23 4 -20 9 6 8 46 4 46 -5z m35 6
c3 -5 -1 -10 -9 -10 -9 0 -16 5 -16 10 0 6 4 10 9 10 6 0 13 -4 16 -10z m-995
-240 c0 -5 -4 -10 -10 -10 -5 0 -10 5 -10 10 0 6 5 10 10 10 6 0 10 -4 10 -10z
m13 -54 c9 -7 17 -16 17 -20 0 -12 -18 -6 -41 14 -28 22 -6 28 24 6z m92 -45
c-3 -6 -14 -11 -23 -11 -13 0 -13 2 4 14 21 15 30 14 19 -3z m381 -78 c-7 -7
-26 7 -26 19 0 6 6 6 15 -2 9 -7 13 -15 11 -17z m34 17 c0 -5 -4 -10 -10 -10
-5 0 -10 5 -10 10 0 6 5 10 10 10 6 0 10 -4 10 -10z m-55 -21 c12 -19 -5 -23
-22 -6 -16 16 -16 17 -1 17 9 0 20 -5 23 -11z m-30 -19 c3 -5 -1 -10 -9 -10
-8 0 -18 5 -21 10 -3 6 1 10 9 10 8 0 18 -4 21 -10z"/>
<path d="M268 1313 c7 -3 16 -2 19 1 4 3 -2 6 -13 5 -11 0 -14 -3 -6 -6z"/>
<path d="M941 2034 c0 -11 3 -14 6 -6 3 7 2 16 -1 19 -3 4 -6 -2 -5 -13z"/>
<path d="M1181 1813 c-1 -23 27 -58 38 -48 3 4 -1 12 -10 19 -9 6 -19 20 -22
31 -4 18 -5 18 -6 -2z"/>
<path d="M2002 1801 c2 -7 7 -12 11 -12 12 1 9 15 -3 20 -7 2 -11 -2 -8 -8z"/>
<path d="M2222 1780 c-10 -17 -10 -20 3 -20 8 0 15 9 15 20 0 11 -1 20 -3 20
-1 0 -8 -9 -15 -20z"/>
<path d="M1960 1781 c0 -5 7 -12 16 -15 24 -9 28 -7 14 9 -14 17 -30 20 -30 6z"/>
<path d="M2070 1765 c-7 -9 -8 -15 -2 -15 5 0 12 7 16 15 3 8 4 15 2 15 -2 0
-9 -7 -16 -15z"/>
<path d="M1920 1756 c0 -8 7 -17 16 -20 23 -9 34 -7 34 4 0 6 -7 10 -15 10 -8
0 -15 5 -15 10 0 6 -4 10 -10 10 -5 0 -10 -6 -10 -14z"/>
<path d="M2020 1734 c0 -9 5 -14 12 -12 18 6 21 28 4 28 -9 0 -16 -7 -16 -16z"/>
<path d="M2185 1740 c-3 -5 -1 -10 4 -10 6 0 11 5 11 10 0 6 -2 10 -4 10 -3 0
-8 -4 -11 -10z"/>
<path d="M2126 1732 c-3 -3 6 -11 20 -19 30 -15 34 -16 34 -5 0 9 -48 31 -54
24z"/>
<path d="M941 1714 c0 -11 3 -14 6 -6 3 7 2 16 -1 19 -3 4 -6 -2 -5 -13z"/>
<path d="M1270 1720 c-8 -5 -11 -12 -8 -16 10 -9 38 3 38 16 0 12 -10 13 -30
0z"/>
<path d="M1980 1710 c0 -5 5 -10 10 -10 6 0 10 5 10 10 0 6 -4 10 -10 10 -5 0
-10 -4 -10 -10z"/>
<path d="M2093 1693 c-14 -5 -18 -23 -5 -23 5 0 17 7 28 15 14 11 15 14 4 14
-8 0 -21 -3 -27 -6z"/>
<path d="M1165 1681 c-9 -16 23 -40 54 -41 20 0 22 2 11 15 -7 9 -19 14 -26
11 -8 -3 -17 2 -22 11 -7 11 -11 12 -17 4z"/>
<path d="M1820 1550 c0 -5 6 -10 14 -10 8 0 18 5 21 10 3 6 -3 10 -14 10 -12
0 -21 -4 -21 -10z"/>
<path d="M1835 1500 c-3 -5 1 -10 9 -10 9 0 16 5 16 10 0 6 -4 10 -9 10 -6 0
-13 -4 -16 -10z"/>
<path d="M2361 1434 c0 -11 3 -14 6 -6 3 7 2 16 -1 19 -3 4 -6 -2 -5 -13z"/>
<path d="M771 1354 c0 -11 3 -14 6 -6 3 7 2 16 -1 19 -3 4 -6 -2 -5 -13z"/>
<path d="M2422 1218 c6 -18 28 -21 28 -4 0 9 -7 16 -16 16 -9 0 -14 -5 -12
-12z"/>
<path d="M2385 1200 c3 -5 13 -10 21 -10 8 0 12 5 9 10 -3 6 -13 10 -21 10 -8
0 -12 -4 -9 -10z"/>
<path d="M1160 651 c0 -6 5 -13 10 -16 6 -3 10 1 10 9 0 9 -4 16 -10 16 -5 0
-10 -4 -10 -9z"/>
<path d="M1192 619 c2 -7 10 -15 17 -17 8 -3 12 1 9 9 -2 7 -10 15 -17 17 -8
3 -12 -1 -9 -9z"/>
<path d="M1148 612 c-22 -4 -24 -22 -3 -22 20 0 19 -17 -2 -29 -14 -8 -15 -12
-6 -22 10 -10 17 -9 32 5 11 10 26 15 33 11 7 -4 3 2 -9 12 -11 10 -23 25 -25
33 -1 9 -11 14 -20 12z"/>
<path d="M1265 600 c3 -5 11 -10 16 -10 6 0 7 5 4 10 -3 6 -11 10 -16 10 -6 0
-7 -4 -4 -10z"/>
<path d="M1306 566 c3 -9 11 -16 16 -16 13 0 5 23 -10 28 -7 2 -10 -2 -6 -12z"/>
<path d="M1340 544 c0 -16 32 -35 48 -28 15 6 14 8 -5 11 -13 3 -23 9 -23 14
0 5 -4 9 -10 9 -5 0 -10 -3 -10 -6z"/>
<path d="M1095 530 c-3 -5 1 -10 9 -10 9 0 16 5 16 10 0 6 -4 10 -9 10 -6 0
-13 -4 -16 -10z"/>
<path d="M1220 521 c0 -6 5 -13 10 -16 6 -3 10 1 10 9 0 9 -4 16 -10 16 -5 0
-10 -4 -10 -9z"/>
<path d="M1141 507 c-5 -5 -40 -11 -76 -12 -37 -1 -70 -6 -75 -11 -14 -14 120
-6 164 9 31 12 34 15 18 19 -11 3 -25 1 -31 -5z"/>
<path d="M1188 473 c7 -3 16 -2 19 1 4 3 -2 6 -13 5 -11 0 -14 -3 -6 -6z"/>
<path d="M1025 430 c-3 -5 -1 -10 4 -10 6 0 11 5 11 10 0 6 -2 10 -4 10 -3 0
-8 -4 -11 -10z"/>
</g>
</svg>
